<svg width="50" height="50" viewBox="0 0 50 50" fill="none" xmlns="http://www.w3.org/2000/svg">
<path fill-rule="evenodd" clip-rule="evenodd" d="M47.8443 5.17707C48.0427 4.97872 48.2 4.74325 48.3074 4.48409C48.4147 4.22494 48.47 3.94718 48.47 3.66667C48.47 3.38616 48.4147 3.1084 48.3074 2.84925C48.2 2.59009 48.0427 2.35462 47.8443 2.15627C47.646 1.95792 47.4105 1.80058 47.1514 1.69324C46.8922 1.58589 46.6145 1.53064 46.3339 1.53064C46.0534 1.53064 45.7757 1.58589 45.5165 1.69324C45.2574 1.80058 45.0219 1.95792 44.8235 2.15627L25.0006 21.9835L5.17768 2.15627C4.97933 1.95792 4.74386 1.80058 4.4847 1.69324C4.22555 1.58589 3.94779 1.53064 3.66728 1.53064C3.38677 1.53064 3.10901 1.58589 2.84986 1.69324C2.5907 1.80058 2.35523 1.95792 2.15688 2.15627C1.95853 2.35462 1.80119 2.59009 1.69385 2.84925C1.5865 3.1084 1.53125 3.38616 1.53125 3.66667C1.53125 3.94718 1.5865 4.22494 1.69385 4.48409C1.80119 4.74325 1.95853 4.97872 2.15688 5.17707L21.9841 25L2.15688 44.8229C1.75629 45.2235 1.53125 45.7668 1.53125 46.3333C1.53125 46.8998 1.75629 47.4432 2.15688 47.8437C2.55746 48.2443 3.10077 48.4694 3.66728 48.4694C4.23379 48.4694 4.7771 48.2443 5.17768 47.8437L25.0006 28.0165L44.8235 47.8437C45.2241 48.2443 45.7674 48.4694 46.3339 48.4694C46.9005 48.4694 47.4438 48.2443 47.8443 47.8437C48.2449 47.4432 48.47 46.8998 48.47 46.3333C48.47 45.7668 48.2449 45.2235 47.8443 44.8229L28.0171 25L47.8443 5.17707Z" fill="black"/>
</svg>
