<svg width="35" height="35" viewBox="0 0 35 35" fill="none" xmlns="http://www.w3.org/2000/svg">
<path d="M31.532 8.65469C30.6979 7.85901 29.5895 7.4151 28.4367 7.4151C27.284 7.4151 26.1755 7.85901 25.3414 8.65469L0.371094 33.625H10.4883C11.9359 33.6247 13.3243 33.0504 14.3492 32.0281L31.532 14.8453C31.9388 14.439 32.2615 13.9565 32.4817 13.4254C32.7018 12.8942 32.8152 12.3249 32.8152 11.75C32.8152 11.1751 32.7018 10.6058 32.4817 10.0746C32.2615 9.54352 31.9388 9.06101 31.532 8.65469ZM13.4414 23.65L15.7273 21.3641L18.8227 24.4594L16.5367 26.7453L13.4414 23.65ZM12.807 30.475C12.1923 31.0905 11.3582 31.4367 10.4883 31.4375H5.65391L11.8992 25.1922L14.9945 28.2875L12.807 30.475ZM29.9789 13.2922L20.3648 22.9172L17.2695 19.8219L26.8945 10.2078C27.3044 9.80039 27.8588 9.5717 28.4367 9.5717C29.0146 9.5717 29.5691 9.80039 29.9789 10.2078C30.3863 10.6177 30.615 11.1721 30.615 11.75C30.615 12.3279 30.3863 12.8823 29.9789 13.2922Z" fill="black"/>
</svg>
