<svg width="64" height="64" viewBox="0 0 64 64" fill="none" xmlns="http://www.w3.org/2000/svg">
<path fill-rule="evenodd" clip-rule="evenodd" d="M6.40091 12.8C5.83512 12.8 5.29249 13.0247 4.89242 13.4248C4.49234 13.8249 4.26758 14.3675 4.26758 14.9333C4.26758 15.4991 4.49234 16.0417 4.89242 16.4418C5.29249 16.8419 5.83512 17.0667 6.40091 17.0667H57.6009C58.1667 17.0667 58.7093 16.8419 59.1094 16.4418C59.5095 16.0417 59.7342 15.4991 59.7342 14.9333C59.7342 14.3675 59.5095 13.8249 59.1094 13.4248C58.7093 13.0247 58.1667 12.8 57.6009 12.8H6.40091ZM4.26758 32C4.26758 31.4342 4.49234 30.8916 4.89242 30.4915C5.29249 30.0914 5.83512 29.8667 6.40091 29.8667H57.6009C58.1667 29.8667 58.7093 30.0914 59.1094 30.4915C59.5095 30.8916 59.7342 31.4342 59.7342 32C59.7342 32.5658 59.5095 33.1084 59.1094 33.5085C58.7093 33.9086 58.1667 34.1333 57.6009 34.1333H6.40091C5.83512 34.1333 5.29249 33.9086 4.89242 33.5085C4.49234 33.1084 4.26758 32.5658 4.26758 32ZM4.26758 49.0667C4.26758 48.5009 4.49234 47.9582 4.89242 47.5582C5.29249 47.1581 5.83512 46.9333 6.40091 46.9333H57.6009C58.1667 46.9333 58.7093 47.1581 59.1094 47.5582C59.5095 47.9582 59.7342 48.5009 59.7342 49.0667C59.7342 49.6325 59.5095 50.1751 59.1094 50.5752C58.7093 50.9752 58.1667 51.2 57.6009 51.2H6.40091C5.83512 51.2 5.29249 50.9752 4.89242 50.5752C4.49234 50.1751 4.26758 49.6325 4.26758 49.0667Z" fill="black"/>
</svg>
