<svg width="30" height="30" viewBox="0 0 30 30" fill="none" xmlns="http://www.w3.org/2000/svg">
<rect width="30" height="30" fill="#FFD50F"/>
<path d="M24.2716 8.34875C25.5591 9.71625 26.2504 11.25 26.2504 13.7363C26.2504 18.1113 23.1791 22.0325 18.7129 23.9713L17.5966 22.2487C21.7654 19.9937 22.5804 17.0675 22.9054 15.2225C22.2341 15.57 21.3554 15.6913 20.4941 15.6113C18.2391 15.4025 16.4616 13.5512 16.4616 11.25C16.4616 10.0897 16.9226 8.97688 17.743 8.15641C18.5635 7.33594 19.6763 6.875 20.8366 6.875C22.1779 6.875 23.4604 7.4875 24.2716 8.34875ZM11.7716 8.34875C13.0591 9.71625 13.7504 11.25 13.7504 13.7363C13.7504 18.1113 10.6791 22.0325 6.21289 23.9713L5.09664 22.2487C9.26539 19.9937 10.0804 17.0675 10.4054 15.2225C9.73414 15.57 8.85539 15.6913 7.99414 15.6113C5.73914 15.4025 3.96289 13.5512 3.96289 11.25C3.96289 10.0897 4.42383 8.97688 5.2443 8.15641C6.06477 7.33594 7.17757 6.875 8.33789 6.875C9.67914 6.875 10.9616 7.4875 11.7729 8.34875H11.7716Z" fill="white"/>
</svg>
