<svg width="62" height="62" viewBox="0 0 62 62" fill="none" xmlns="http://www.w3.org/2000/svg">
<path d="M58.6271 9.27014C57.0845 7.81297 55.0346 7 52.9028 7C50.771 7 48.721 7.81297 47.1785 9.27014L1 55H19.7101C22.3872 54.9994 24.9549 53.9478 26.8503 52.0755L58.6271 20.6075C59.3793 19.8633 59.9761 18.9797 60.3833 18.007C60.7904 17.0343 61 15.9917 61 14.9388C61 13.8859 60.7904 12.8433 60.3833 11.8706C59.9761 10.8979 59.3793 10.0143 58.6271 9.27014ZM25.1714 36.7321L29.3989 32.5457L35.1231 38.2144L30.8957 42.4008L25.1714 36.7321ZM23.9982 49.2312C22.8613 50.3585 21.3189 50.9925 19.7101 50.9939H10.7697L22.3194 39.5564L28.0437 45.2251L23.9982 49.2312ZM55.7548 17.7631L37.9752 35.39L32.2509 29.7214L50.0508 12.1145C50.8087 11.3683 51.834 10.9495 52.9028 10.9495C53.9715 10.9495 54.9969 11.3683 55.7548 12.1145C56.5083 12.8651 56.9312 13.8804 56.9312 14.9388C56.9312 15.9972 56.5083 17.0125 55.7548 17.7631Z" fill="#FFD50F"/>
</svg>
