<svg width="30" height="30" viewBox="0 0 30 30" fill="none" xmlns="http://www.w3.org/2000/svg">
<g clip-path="url(#clip0_617_21)">
<path fill-rule="evenodd" clip-rule="evenodd" d="M26.9448 0.945813C26.8302 0.989875 26.6193 1.08439 26.476 1.15587C26.2887 1.24939 23.8253 3.67271 17.6983 9.79083C13.0139 14.4685 9.1049 18.413 9.0118 18.5563C8.89578 18.7348 8.84252 18.8916 8.84252 19.0544C8.84252 19.2912 8.82436 19.3103 4.50283 23.628C2.11596 26.0126 0.125236 28.0349 0.0790055 28.1219C-0.0360726 28.3383 -0.026639 28.4772 0.115216 28.6576C0.461388 29.0977 2.68906 29.373 4.0151 29.1397C4.92606 28.9793 5.86098 28.5917 6.61596 28.0614C7.10903 27.715 11.0619 23.7942 11.1095 23.6042C11.1293 23.5256 11.0836 23.1349 11.008 22.7359L10.8707 22.0106L11.437 21.4443L12.0032 20.878L12.5176 20.8751C12.938 20.8728 13.0801 20.8474 13.2956 20.7359C13.4812 20.6398 15.9335 18.226 21.5696 12.5921C30.3154 3.84948 29.7913 4.41398 29.9488 3.56695C30.1307 2.58855 29.585 1.54312 28.6518 1.08251C28.3202 0.918801 28.209 0.894953 27.7143 0.881301C27.3459 0.871164 27.0815 0.893312 26.9448 0.945813ZM28.2699 2.00894C28.7546 2.31093 28.9584 2.65546 28.9621 3.17859C28.9657 3.67927 28.8395 3.87439 27.923 4.78499L27.132 5.57109L26.9501 5.16585C26.8501 4.94296 26.5872 4.36511 26.3659 3.88171L25.9634 3.0028L26.4118 2.54226C26.978 1.96066 27.1996 1.84763 27.7133 1.87851C27.9491 1.89263 28.1643 1.94308 28.2699 2.00894ZM25.7967 5.06278L26.3708 6.33175L25.7962 6.90849C25.4802 7.22571 25.2063 7.48523 25.1875 7.48523C25.1687 7.48523 24.8949 6.91517 24.5792 6.21849L24.0051 4.95169L24.5819 4.37279C24.8991 4.05433 25.1731 3.79382 25.1907 3.79382C25.2083 3.79382 25.481 4.36487 25.7967 5.06278ZM23.8355 7.03036L24.4134 8.29335L23.8122 8.89253L23.2109 9.49171L23.0561 9.14765C22.9709 8.95839 22.7074 8.38171 22.4706 7.86609L22.04 6.92859L22.6307 6.32993C22.9555 6.00064 23.2295 5.73937 23.2395 5.74933C23.2494 5.75929 23.5176 6.33573 23.8355 7.03036ZM21.8756 8.98698L22.45 10.2544L17.6531 15.0532C15.0148 17.6925 12.796 19.8674 12.7224 19.8864C12.5296 19.9359 9.89311 19.32 9.8532 19.216C9.8327 19.1626 11.8363 17.1186 15.5282 13.4265C18.6669 10.2877 21.2498 7.7196 21.2681 7.7196C21.2864 7.7196 21.5598 8.28995 21.8756 8.98698ZM10.1023 20.379C10.3601 20.4417 10.6348 20.5078 10.7127 20.5259C10.8455 20.5567 10.8247 20.5887 10.3788 21.0386C10.1173 21.3025 9.8794 21.5843 9.85022 21.6649C9.81289 21.7677 9.84067 22.0371 9.94344 22.5685L10.0897 23.3256L8.22102 25.1788C6.24524 27.138 5.88611 27.4328 5.04477 27.7859C4.24672 28.1208 3.82373 28.1978 2.77807 28.1979C1.22528 28.1982 0.883732 28.7161 5.44807 24.1493C8.6593 20.9364 9.42113 20.2025 9.51635 20.2305C9.5808 20.2494 9.84447 20.3162 10.1023 20.379ZM5.96733 24.6892C5.62028 25.0312 5.32092 25.3721 5.30217 25.4468C5.26074 25.6118 5.35403 25.876 5.49031 25.9796C5.54545 26.0215 5.68051 26.0566 5.79049 26.0576C5.96715 26.0592 6.06506 25.9857 6.63131 25.4256C7.22879 24.8347 7.27221 24.7763 7.27221 24.5634C7.27221 24.2839 7.05717 24.0673 6.77973 24.0673C6.62809 24.0673 6.49514 24.169 5.96733 24.6892ZM4.41606 26.2619C4.32535 26.3525 4.27221 26.4726 4.27221 26.5868C4.27221 27.0243 4.84022 27.2318 5.13647 26.9026C5.30111 26.7196 5.30516 26.4736 5.14684 26.2724C4.98043 26.0609 4.62219 26.0557 4.41606 26.2619Z" fill="#0094FF"/>
</g>
<defs>
<clipPath id="clip0_617_21">
<rect width="30" height="30" fill="white"/>
</clipPath>
</defs>
</svg>
