<svg width="33" height="33" viewBox="0 0 33 33" fill="none" xmlns="http://www.w3.org/2000/svg">
<path d="M29.7338 8.63155C28.9474 7.88134 27.9023 7.4628 26.8154 7.4628C25.7285 7.4628 24.6834 7.88134 23.897 8.63155L0.353516 32.175H9.89258C11.2575 32.1747 12.5666 31.6333 13.5329 30.6694L29.7338 14.4684C30.1174 14.0853 30.4216 13.6304 30.6292 13.1296C30.8368 12.6289 30.9436 12.0921 30.9436 11.55C30.9436 11.0079 30.8368 10.4711 30.6292 9.97036C30.4216 9.46959 30.1174 9.01465 29.7338 8.63155ZM12.677 22.77L14.8323 20.6147L17.7507 23.5331L15.5954 25.6884L12.677 22.77ZM12.0788 29.205C11.4992 29.7853 10.7128 30.1118 9.89258 30.1125H5.33445L11.2229 24.2241L14.1413 27.1425L12.0788 29.205ZM28.2695 13.0041L19.2048 22.0791L16.2863 19.1606L25.3613 10.0959C25.7478 9.71178 26.2705 9.49617 26.8154 9.49617C27.3603 9.49617 27.883 9.71178 28.2695 10.0959C28.6536 10.4824 28.8692 11.0051 28.8692 11.55C28.8692 12.0949 28.6536 12.6176 28.2695 13.0041Z" fill="black"/>
</svg>
