<svg width="64" height="64" viewBox="0 0 64 64" fill="none" xmlns="http://www.w3.org/2000/svg">
<path d="M40.3329 56.2667L17.8662 33.8667C17.5995 33.6001 17.4102 33.3112 17.2982 33.0001C17.1862 32.689 17.1311 32.3556 17.1329 32.0001C17.1329 31.6445 17.188 31.3112 17.2982 31.0001C17.4084 30.689 17.5977 30.4001 17.8662 30.1334L40.3329 7.66673C40.9551 7.04451 41.7329 6.7334 42.6662 6.7334C43.5995 6.7334 44.3995 7.06673 45.0662 7.7334C45.7329 8.40007 46.0662 9.17784 46.0662 10.0667C46.0662 10.9556 45.7329 11.7334 45.0662 12.4001L25.4662 32.0001L45.0662 51.6001C45.6884 52.2223 45.9995 52.9894 45.9995 53.9014C45.9995 54.8134 45.6662 55.6018 44.9995 56.2667C44.3329 56.9334 43.5551 57.2667 42.6662 57.2667C41.7773 57.2667 40.9995 56.9334 40.3329 56.2667Z" fill="#BFBFBF"/>
</svg>
