<svg width="64" height="64" viewBox="0 0 64 64" fill="none" xmlns="http://www.w3.org/2000/svg">
<path d="M59.84 31.22L53.84 17.22C53.6869 16.8585 53.4308 16.5501 53.1036 16.3331C52.7764 16.1162 52.3926 16.0003 52 16H46V12C46 11.4696 45.7893 10.9609 45.4142 10.5858C45.0391 10.2107 44.5304 10 44 10H6C5.46957 10 4.96086 10.2107 4.58579 10.5858C4.21071 10.9609 4 11.4696 4 12V46C4 46.5304 4.21071 47.0391 4.58579 47.4142C4.96086 47.7893 5.46957 48 6 48H10.28C10.7406 49.6947 11.746 51.1908 13.1412 52.2575C14.5364 53.3241 16.2438 53.902 18 53.902C19.7562 53.902 21.4636 53.3241 22.8588 52.2575C24.254 51.1908 25.2594 49.6947 25.72 48H38.28C38.7406 49.6947 39.746 51.1908 41.1412 52.2575C42.5364 53.3241 44.2438 53.902 46 53.902C47.7562 53.902 49.4636 53.3241 50.8588 52.2575C52.254 51.1908 53.2594 49.6947 53.72 48H58C58.5304 48 59.0391 47.7893 59.4142 47.4142C59.7893 47.0391 60 46.5304 60 46V32C59.9995 31.7319 59.9451 31.4666 59.84 31.22ZM46 20H50.68L54.96 30H46V20ZM18 50C17.2089 50 16.4355 49.7654 15.7777 49.3259C15.1199 48.8864 14.6072 48.2616 14.3045 47.5307C14.0017 46.7998 13.9225 45.9956 14.0769 45.2196C14.2312 44.4437 14.6122 43.731 15.1716 43.1716C15.731 42.6122 16.4437 42.2312 17.2196 42.0769C17.9956 41.9225 18.7998 42.0017 19.5307 42.3045C20.2616 42.6072 20.8864 43.1199 21.3259 43.7777C21.7654 44.4355 22 45.2089 22 46C22 47.0609 21.5786 48.0783 20.8284 48.8284C20.0783 49.5786 19.0609 50 18 50ZM38.28 44H25.72C25.2594 42.3053 24.254 40.8092 22.8588 39.7425C21.4636 38.6759 19.7562 38.098 18 38.098C16.2438 38.098 14.5364 38.6759 13.1412 39.7425C11.746 40.8092 10.7406 42.3053 10.28 44H8V14H42V39.12C41.0893 39.6486 40.2919 40.3517 39.6535 41.1892C39.0152 42.0266 38.5484 42.9818 38.28 44ZM46 50C45.2089 50 44.4355 49.7654 43.7777 49.3259C43.1199 48.8864 42.6072 48.2616 42.3045 47.5307C42.0017 46.7998 41.9225 45.9956 42.0769 45.2196C42.2312 44.4437 42.6122 43.731 43.1716 43.1716C43.731 42.6122 44.4437 42.2312 45.2196 42.0769C45.9956 41.9225 46.7998 42.0017 47.5307 42.3045C48.2616 42.6072 48.8864 43.1199 49.3259 43.7777C49.7654 44.4355 50 45.2089 50 46C50 47.0609 49.5786 48.0783 48.8284 48.8284C48.0783 49.5786 47.0609 50 46 50ZM56 44H53.72C53.2777 42.287 52.2801 40.769 50.8833 39.6834C49.4864 38.5977 47.7691 38.0057 46 38V34H56V44Z" fill="black"/>
</svg>
