<svg width="64" height="64" viewBox="0 0 64 64" fill="none" xmlns="http://www.w3.org/2000/svg">
<path d="M23.6671 56.2667L46.1338 33.8667C46.4005 33.6001 46.5898 33.3112 46.7018 33.0001C46.8138 32.689 46.8689 32.3556 46.8671 32.0001C46.8671 31.6445 46.812 31.3112 46.7018 31.0001C46.5916 30.689 46.4023 30.4001 46.1338 30.1334L23.6671 7.66673C23.0449 7.04451 22.2671 6.7334 21.3338 6.7334C20.4005 6.7334 19.6005 7.06673 18.9338 7.7334C18.2671 8.40007 17.9338 9.17784 17.9338 10.0667C17.9338 10.9556 18.2671 11.7334 18.9338 12.4001L38.5338 32.0001L18.9338 51.6001C18.3116 52.2223 18.0005 52.9894 18.0005 53.9014C18.0005 54.8134 18.3338 55.6018 19.0005 56.2667C19.6671 56.9334 20.4449 57.2667 21.3338 57.2667C22.2227 57.2667 23.0005 56.9334 23.6671 56.2667Z" fill="#BFBFBF"/>
</svg>
