<svg width="64" height="64" viewBox="0 0 64 64" fill="none" xmlns="http://www.w3.org/2000/svg">
<path d="M32.0007 58.6666C28.4987 58.6666 25.0311 57.9769 21.7958 56.6368C18.5604 55.2966 15.6207 53.3324 13.1445 50.8562C8.1435 45.8552 5.33398 39.0724 5.33398 32C5.33398 24.9275 8.1435 18.1448 13.1445 13.1438C18.1454 8.14283 24.9282 5.33331 32.0007 5.33331C35.5026 5.33331 38.9702 6.02307 42.2055 7.36319C45.4409 8.70332 48.3806 10.6676 50.8568 13.1438C53.3331 15.62 55.2973 18.5597 56.6374 21.7951C57.9776 25.0304 58.6673 28.4981 58.6673 32C58.6673 39.0724 55.8578 45.8552 50.8568 50.8562C45.8559 55.8571 39.0731 58.6666 32.0007 58.6666ZM32.0007 18.6666L18.6673 32H26.6673V42.6666H37.334V32H45.334L32.0007 18.6666Z" fill="#979996"/>
</svg>
